#!OML:ASF E:\inclinewalkrobotboard\Project 1\Capture day 1\Session 1\subject1.ASF
:FULLY-SPECIFIED
:DEGREES
1657
root 11.9219 16.6568 -7.92673 -3.7825 1.86278 -6.45095
lowerback 10.4718 -2.33646 -11.3709
upperback 7.73967 -3.99553 2.00399
thorax 3.35167 -2.5962 8.81121
lowerneck -4.14903 -1.37864 -3.70941
upperneck 35.843 -3.59095 5.97584
head 12.7739 -1.48738 2.5506
rclavicle -2.94201e-014 -9.54166e-015
rhumerus -58.4035 -27.8724 -53.4546
rradius 26.2124
rwrist 12.8095
rhand -15.1093 -40.2138
rfingers 7.12502
rthumb 11.0593 -429.902
lclavicle -2.94201e-014 -9.54166e-015
lhumerus -16.4285 -3.8197 81.3339
lradius 36.8745
lwrist -15.8185
lhand -24.9774 343.15
lfingers 7.12502
lthumb 1.53339 13.1238
rfemur -90.9681 -6.82043 14.6308
rtibia 88.0138
rfoot 221.527 -65.5028
rtoes -21.809
lfemur 1.25598 -8.10515 -19.4619
ltibia 8.81583
lfoot 706.861 1.93915
ltoes -50.6894
1658
root 11.9316 16.6546 -7.91301 -3.94411 1.94358 -6.35503
lowerback 10.1108 -2.49573 -11.7514
upperback 7.65473 -4.19692 1.93177
thorax 3.53957 -2.71976 8.93619
lowerneck -4.0449 -1.33942 -3.68461
upperneck 35.9605 -3.55147 5.95996
head 12.7998 -1.47407 2.54718
rclavicle -4.17448e-014 1.43125e-014
rhumerus -59.3008 -28.3662 -52.6833
rradius 25.6139
rwrist 13.4501
rhand -14.9565 -40.5344
rfingers 7.12502
rthumb 11.2067 -430.215
lclavicle -4.17448e-014 1.43125e-014
lhumerus -16.0944 -4.0576 81.6265
lradius 37.4864
lwrist -15.7227
lhand -25.0798 342.595
lfingers 7.12502
lthumb 1.43448 12.5701
rfemur -88.8188 -7.30157 14.1054
rtibia 88.3398
rfoot 331.167 -72.9201
rtoes -23.3835
lfemur 1.55188 -8.13658 -19.7036
ltibia 8.7372
lfoot 706.935 1.92778
ltoes -50.2521
1659
root 11.9434 16.6549 -7.8991 -3.94915 2.06517 -6.62279
lowerback 9.57035 -2.72321 -11.73
upperback 7.54596 -4.44008 1.97222
thorax 3.78022 -2.85163 8.94236
lowerneck -4.06681 -1.28545 -3.59701
upperneck 36.1689 -3.47436 5.85899
head 12.8873 -1.443 2.50526
rclavicle -3.18055e-014 1.90833e-014
rhumerus -60.1479 -28.9185 -51.8138
rradius 24.9463
rwrist 14.52
rhand -14.8928 -40.4914
rfingers 7.12502
rthumb 11.2681 -430.169
lclavicle -3.18055e-014 1.90833e-014
lhumerus -15.872 -4.43559 81.9097
lradius 38.1534
lwrist -15.5713
lhand -25.1627 342.303
lfingers 7.12502
lthumb 1.35441 12.2782
rfemur -86.4648 -7.68632 13.9034
rtibia 84.2327
rfoot 364.432 -42.5986
rtoes -24.8719
lfemur 1.6095 -8.27538 -19.4894
ltibia 8.71323
lfoot 706.971 1.78124
ltoes -49.1004
1660
root 11.95 16.6508 -7.8936 -3.80333 2.1984 -6.91732
lowerback 9.01876 -2.87878 -11.6012
upperback 7.35037 -4.58331 1.99808
thorax 3.89467 -2.91461 8.86914
lowerneck -4.07997 -1.30689 -3.53031
upperneck 36.3861 -3.54417 5.88561
head 12.9905 -1.46378 2.50093
rclavicle -1.27222e-014 -1.27222e-014
rhumerus -61.1002 -29.5396 -50.9411
rradius 24.2189
rwrist 15.7662
rhand -14.9821 -40.4467
rfingers 7.12502
rthumb 11.182 -430.129
lclavicle -1.27222e-014 -1.27222e-014
lhumerus -15.7198 -5.12966 82.2161
lradius 38.7557
lwrist -15.5871
lhand -25.3409 342.236
lfingers 7.12502
lthumb 1.1823 12.2121
rfemur -84.0762 -7.93099 13.5541
rtibia 78.264
rfoot 374.551 -9.87625
rtoes -23.8764
lfemur 1.29793 -8.41736 -19.1271
ltibia 8.91371
lfoot 706.949 1.62273
ltoes -48.0111
1661
root 11.9593 16.648 -7.87596 -3.74777 2.35362 -7.07158
lowerback 8.47152 -3.06683 -11.5845
upperback 7.15958 -4.77715 1.97759
thorax 4.03314 -3.00827 8.80781
lowerneck -3.96815 -1.31034 -3.57442
upperneck 36.4873 -3.59646 6.00188
head 13.0185 -1.48404 2.55155
rclavicle -2.66371e-014 1.27222e-014
rhumerus -61.9551 -29.9947 -50.1957
rradius 23.4922
rwrist 17.1527
rhand -14.8856 -40.5472
rfingers 7.12502
rthumb 11.2751 -430.224
lclavicle -2.66371e-014 1.27222e-014
lhumerus -15.7731 -5.74709 82.481
lradius 39.2004
lwrist -15.7449
lhand -25.7266 341.782
lfingers 7.12502
lthumb 0.809808 11.76
rfemur -81.3912 -8.21169 13.0625
rtibia 73.4966
rfoot 375.706 -7.90127
rtoes -24.6237
lfemur 1.24063 -8.43533 -18.988
ltibia 8.98891
lfoot 706.988 1.43362
ltoes -47.4947
1662
root 11.9721 16.645 -7.84642 -3.80086 2.58789 -6.9618
lowerback 7.96248 -3.25177 -11.7455
upperback 7.08867 -4.973 1.87821
thorax 4.29524 -3.12175 8.75588
lowerneck -4.08878 -1.30033 -3.61284
upperneck 36.5479 -3.62725 6.1398
head 13.0769 -1.48613 2.61082
rclavicle 9.42239e-014 9.54166e-015
rhumerus -62.6158 -30.6676 -49.4765
rradius 22.8636
rwrist 18.652
rhand -14.9199 -40.7472
rfingers 7.12502
rthumb 11.242 -430.426
lclavicle 9.42239e-014 9.54166e-015
lhumerus -15.6507 -6.24366 82.7551
lradius 39.3688
lwrist -15.9601
lhand -26.0939 341.083
lfingers 7.12502
lthumb 0.455017 11.0626
rfemur -78.3296 -8.56 12.1683
rtibia 68.4091
rfoot 376.797 -6.63411
rtoes -25.5358
lfemur 1.48866 -8.44367 -19.25
ltibia 8.86578
lfoot 707.113 1.26277
ltoes -47.3007
1663
root 11.9858 16.6384 -7.81193 -3.73192 2.86016 -6.85737
lowerback 7.27004 -3.4131 -11.7061
upperback 7.24534 -5.0922 1.75482
thorax 4.86495 -3.215 8.53739
lowerneck -4.99592 -1.34631 -3.59328
upperneck 36.7297 -3.7215 6.24175
head 13.3632 -1.49451 2.63984
rclavicle 8.90555e-014 9.54166e-015
rhumerus -62.7448 -31.5658 -49.2659
rradius 22.3477
rwrist 19.8373
rhand -15.2046 -41.1108
rfingers 7.12502
rthumb 10.9674 -430.804
lclavicle 8.90555e-014 9.54166e-015
lhumerus -14.8748 -6.77921 82.9885
lradius 39.1359
lwrist -16.2249
lhand -26.3751 340.563
lfingers 7.12502
lthumb 0.183478 10.5422
rfemur -75.2012 -8.84243 11.2557
rtibia 63.7362
rfoot 377.096 -5.99339
rtoes -26.4136
lfemur 1.61376 -8.48558 -19.5041
ltibia 8.72976
lfoot 707.211 1.25816
ltoes -47.8914
1664
root 11.9902 16.6299 -7.79618 -3.39712 3.04096 -7.15926
lowerback 6.50721 -3.56982 -11.5223
upperback 6.98617 -5.21811 1.82644
thorax 5.02503 -3.26611 8.46185
lowerneck -4.90024 -1.39357 -3.53586
upperneck 36.7728 -3.80606 6.23344
head 13.3669 -1.52731 2.61706
rclavicle -4.57205e-015 0
rhumerus -63.1851 -31.6816 -49.1401
rradius 21.9148
rwrist 20.6024
rhand -15.2435 -41.3203
rfingers 7.12502
rthumb 10.9299 -431.016
lclavicle -4.57205e-015 0
lhumerus -14.9598 -7.3763 83.3032
lradius 38.9092
lwrist -16.4158
lhand -26.163 340.471
lfingers 7.12502
lthumb 0.388312 10.4507
rfemur -72.2576 -8.63575 10.6984
rtibia 58.82
rfoot 377.458 -6.16592
rtoes -26.7602
lfemur 1.11806 -8.39676 -19.0791
ltibia 8.91408
lfoot 707.324 1.41062
ltoes -49.5325
1665
root 12.011 16.6232 -7.7486 -3.36446 3.55946 -6.91502
lowerback 5.82801 -3.7868 -11.7071
upperback 6.86003 -5.43418 1.70917
thorax 5.33153 -3.38838 8.38367
lowerneck -4.97723 -1.49162 -3.54514
upperneck 36.7985 -3.95438 6.24763
head 13.4069 -1.59022 2.60664
rclavicle -1.68967e-014 3.02153e-014
rhumerus -63.6624 -32.1103 -48.6457
rradius 21.49
rwrist 21.7082
rhand -15.0895 -41.4252
rfingers 7.12502
rthumb 11.0784 -431.113
lclavicle -1.68967e-014 3.02153e-014
lhumerus -15.064 -7.81669 83.6432
lradius 38.4774
lwrist -16.7211
lhand -25.4501 340.561
lfingers 7.12502
lthumb 1.07682 10.5378
rfemur -68.7572 -9.01543 9.60869
rtibia 54.2602
rfoot 377.676 -5.77724
rtoes -29.4611
lfemur 1.35147 -8.54178 -19.6767
ltibia 8.77157
lfoot 707.455 1.39896
ltoes -50.5841
